<?xml version="1.0" ?><svg viewBox="0 0 60 60" xmlns="http://www.w3.org/2000/svg"><defs><style>.a{fill:#6b6fde;}.b{fill:#f8f8f8;}.c{fill:#eaeaea;}.d{fill:#dadada;}.e{fill:#22343b;}.f{fill:#a4e869;}.g{fill:#9d5e8c;stroke:#9d5e8c;}.g,.h,.l,.m{stroke-miterlimit:10;}.g,.h{stroke-width:0.5px;}.h{fill:#3e8c93;stroke:#3e8c93;}.i{fill:#484848;}.j{fill:#58e13c;opacity:0.8;}.k{fill:#ff4867;}.l,.m{fill:none;}.l{stroke:#ccc;stroke-width:0.25px;}.m{stroke:#a1b8c4;stroke-linecap:round;}</style></defs><title/><path class="a" d="M45.1,55.88A29.96323,29.96323,0,0,1,14.98,56H44A5.013,5.013,0,0,0,45.1,55.88Z"/><path class="a" d="M48,6.05V50a5.00181,5.00181,0,0,1-5,5H13.36c-.46-.3-.91-.62-1.36-.94-.33-.26-.66-.51-.98-.77A29.99658,29.99658,0,0,1,11,6.73c.33-.27.66-.53,1-.78a30.00058,30.00058,0,0,1,36,.1Z"/><path class="a" d="M59.93,30A29.9418,29.9418,0,0,1,48.1,53.87,4.96553,4.96553,0,0,0,49,51V6.84A29.91275,29.91275,0,0,1,59.93,30Z"/><path class="b" d="M48.1,53.87a5.0633,5.0633,0,0,1-3,2.01A28.00828,28.00828,0,0,0,48.1,53.87Z"/><path class="c" d="M49,2V51a4.96553,4.96553,0,0,1-.9,2.87,28.00828,28.00828,0,0,1-3,2.01A5.013,5.013,0,0,1,44,56H14a2.00211,2.00211,0,0,1-1.82-1.18A1.89122,1.89122,0,0,0,13,55H43a5.00181,5.00181,0,0,0,5-5V1a1.891,1.891,0,0,0-.18-.82A2.00211,2.00211,0,0,1,49,2Z"/><path class="b" d="M48,1V50a5.00181,5.00181,0,0,1-5,5H13a1.89122,1.89122,0,0,1-.82-.18,1.9291,1.9291,0,0,1-.18-.76V2a2.00587,2.00587,0,0,1,2-2H47a1.89122,1.89122,0,0,1,.82.18A1.891,1.891,0,0,1,48,1Z"/><circle class="d" cx="21.5" cy="37.5" r="6.5"/><path class="e" d="M15,2H46a1,1,0,0,1,1,1V18a6,6,0,0,1-6,6H15a1,1,0,0,1-1-1V3A1,1,0,0,1,15,2Z"/><rect class="f" height="17" rx="0.5" ry="0.5" width="21" x="20" y="5"/><line class="g" x1="15" x2="46" y1="3.25" y2="3.25"/><line class="h" x1="15" x2="46" y1="3.75" y2="3.75"/><rect class="i" height="8" rx="1" ry="1" width="3" x="20" y="33.5"/><rect class="i" height="8" rx="1" ry="1" transform="translate(59 16) rotate(90)" width="3" x="20" y="33.5"/><circle class="j" cx="17" cy="14" r="1"/><circle class="k" cx="37" cy="37" r="2"/><circle class="k" cx="43" cy="33" r="2"/><circle class="l" cx="21.5" cy="37.5" r="6"/><line class="m" x1="38" x2="41" y1="51" y2="54"/><line class="m" x1="44" x2="47" y1="45" y2="48"/><line class="m" x1="40" x2="44" y1="49" y2="53"/><line class="m" x1="42" x2="46" y1="47" y2="51"/></svg>