<?xml version="1.0" ?><svg viewBox="0 0 60 60" xmlns="http://www.w3.org/2000/svg"><defs><style>.a{fill:#474d58;}.b,.c,.f,.g,.h,.i,.j{fill:none;stroke-miterlimit:10;}.b{stroke:#414751;}.c{stroke:#4b515c;}.d{fill:#414650;}.e{fill:#3a3e47;}.f{stroke:#363b42;}.g{stroke:#d298bc;}.g,.h,.i,.j{stroke-width:0.75px;}.h{stroke:#c0644b;}.i{stroke:#60b7a4;}.j{stroke:#7ea3cf;stroke-linecap:round;}</style></defs><title/><circle class="a" cx="30" cy="30" r="30"/><circle class="b" cx="30" cy="30" r="26"/><circle class="c" cx="30" cy="30" r="25"/><rect class="d" height="42" rx="2" ry="2" width="15.3125" x="22.34375" y="9"/><rect class="d" height="42" rx="2" ry="2" transform="translate(0 60) rotate(-90)" width="15.3125" x="22.34375" y="9"/><circle class="e" cx="30" cy="30" r="3.5"/><circle class="f" cx="30" cy="16.9649" r="5.2322"/><circle class="f" cx="43.48202" cy="30" r="5.2322"/><circle class="f" cx="30" cy="42.72067" r="5.2322"/><circle class="f" cx="17.11155" cy="30" r="5.2322"/><rect class="g" height="3.5" width="3.5" x="15.36155" y="28.25"/><circle class="h" cx="43.48202" cy="30" r="1.75" transform="translate(-7.10705 45.2129) rotate(-51.34019)"/><polygon class="i" points="30 15.215 28.25 18.715 31.75 18.715 30 15.215"/><line class="j" x1="28.25" x2="31.75" y1="41.2851" y2="44.7851"/><line class="j" x1="28.25" x2="31.75" y1="44.7851" y2="41.2851"/></svg>